HIERARCHY
ROOT pelvis
{
  OFFSET 0 100 0
  CHANNELS 6 Xposition Yposition Zposition Zrotation Xrotation Yrotation
  JOINT pelvis_right_femur
  {
    OFFSET -10.78128 -3.44521 -0.5502486
    CHANNELS 3 Zrotation Xrotation Yrotation
    JOINT right_femur_tibia
    {
      OFFSET -0.8047443 -44.0398 -0.1307829
      CHANNELS 3 Zrotation Xrotation Yrotation
      JOINT right_tibia_foot
      {
        OFFSET 3.006224 -47.83518 -5
        CHANNELS 3 Zrotation Xrotation Yrotation
        End Site
        {
          OFFSET 0 -5 15
        }
      }
    }
  }
  JOINT pelvis_left_femur
  {
    OFFSET 10.78128 -3.44521 -0.5502486
    CHANNELS 3 Zrotation Xrotation Yrotation
    JOINT left_femur_tibia
    {
      OFFSET 0.8047443 -44.0398 -0.1307829
      CHANNELS 3 Zrotation Xrotation Yrotation
      JOINT left_tibia_foot
      {
        OFFSET -4.370144 -48.10324 -4.275266
        CHANNELS 3 Zrotation Xrotation Yrotation
        End Site
        {
          OFFSET 0 -5 15
        }
      }
    }
  }
  JOINT pelvis_spine1
  {
    OFFSET 0 6.468898 -3.129235
    CHANNELS 3 Zrotation Xrotation Yrotation
    JOINT spine1
    {
      OFFSET 0 23.15396 4.99043
      CHANNELS 3 Zrotation Xrotation Yrotation
      JOINT spine2
      {
        OFFSET 0 20.79997 -5.064912
        CHANNELS 3 Zrotation Xrotation Yrotation
        JOINT neck
        {
          OFFSET 0 14.38658 9.616178
          CHANNELS 3 Zrotation Xrotation Yrotation
          End Site
          {
            OFFSET 0 20 0
          }
        }
      }
      JOINT right_manubrium
      {
        OFFSET -5.722621 16.35077 3.967754
        CHANNELS 3 Zrotation Xrotation Yrotation
        JOINT right_clavicle
        {
          OFFSET -13.16364 1.694482 -4.693211
          CHANNELS 3 Zrotation Xrotation Yrotation
          JOINT right_humerus
          {
            OFFSET -28.5034 -0.3100689 -2.792744
            CHANNELS 3 Zrotation Xrotation Yrotation
            JOINT right_radius
            {
              OFFSET -25.15693 0.02248979 -1.271978
              CHANNELS 3 Zrotation Xrotation Yrotation
              End Site
              {
                OFFSET -15 0 0
              }
            }
          }
        }
      }
      JOINT left_manubrium
      {
        OFFSET 5.722621 16.35077 3.967754
        CHANNELS 3 Zrotation Xrotation Yrotation
        JOINT left_clavicle
        {
          OFFSET 13.16364 1.694482 -4.693211
          CHANNELS 3 Zrotation Xrotation Yrotation
          JOINT left_humerus
          {
            OFFSET 29.39168 -1.063119 -2.237045
            CHANNELS 3 Zrotation Xrotation Yrotation
            JOINT left_radius
            {
              OFFSET 24.59957 -0.9528479 0.9047498
              CHANNELS 3 Zrotation Xrotation Yrotation
              End Site
              {
                OFFSET 15 -0 -0
              }
            }
          }
        }
      }
    }
  }
}
MOTION
Frames: 7
Frame Time: 0.0416666666667
-1872.709 117.1524 307.96 2.952434 8.750848 166.5566 6.715651 10.25159 1.57421 -0 13.91956 -0 -7.4811 -8.094174 -1.18691 4.57991 -15.88113 -0.8155272 -0 14.67098 -0 5.723526 -3.396809 10.12062 2.981347 -5.454609 9.080361 -0.5208365 20.60606 -7.33328 1.508934 15.08413 -1.055172 -1.895919 -19.92707 2.123052 -1.471997 -36.79848 14.045 90.32372 11.86342 -9.685683 -0 0 35.69679 -27.83879 23.3178 22.82893 -0.1238315 -23.20628 -9.049809 -89.19234 9.623486 39.17515 0 0 -25.32045 1.383868 11.96383 13.41342
-1872.708 117.1251 301.3559 3.014326 8.729867 166.1493 6.715651 10.25159 1.57421 -0 13.91956 -0 -7.4811 -8.094174 -1.18691 4.57991 -15.88113 -0.8155272 -0 14.67098 -0 5.723526 -3.396809 10.12062 2.981347 -5.454609 9.080361 -0.5208365 20.60606 -7.33328 1.508934 15.08413 -1.055172 -1.895919 -19.92707 2.123052 -1.471997 -36.79848 14.045 90.32372 11.86342 -9.685683 -0 0 35.69679 -27.83879 23.3178 22.82893 -0.1238315 -23.20628 -9.049809 -89.19234 9.623486 39.17515 0 0 -25.32045 1.383868 11.96383 13.41342
-1872.661 117.0978 294.7521 3.076061 8.708452 165.742 6.715651 10.25159 1.57421 -0 13.91956 -0 -7.4811 -8.094174 -1.18691 4.57991 -15.88113 -0.8155272 -0 14.67098 -0 5.723526 -3.396809 10.12062 2.981347 -5.454609 9.080361 -0.5208365 20.60606 -7.33328 1.508934 15.08413 -1.055172 -1.895919 -19.92707 2.123052 -1.471997 -36.79848 14.045 90.32372 11.86342 -9.685683 -0 0 35.69679 -27.83879 23.3178 22.82893 -0.1238315 -23.20628 -9.049809 -89.19234 9.623486 39.17515 0 0 -25.32045 1.383868 11.96383 13.41342
-1872.567 117.0704 288.1487 3.137638 8.686604 165.3348 6.715651 10.25159 1.57421 -0 13.91956 -0 -7.4811 -8.094174 -1.18691 4.57991 -15.88113 -0.8155272 -0 14.67098 -0 5.723526 -3.396809 10.12062 2.981347 -5.454609 9.080361 -0.5208365 20.60606 -7.33328 1.508934 15.08413 -1.055172 -1.895919 -19.92707 2.123052 -1.471997 -36.79848 14.045 90.32372 11.86342 -9.685683 -0 0 35.69679 -27.83879 23.3178 22.82893 -0.1238315 -23.20628 -9.049809 -89.19234 9.623486 39.17515 0 0 -25.32045 1.383868 11.96383 13.41342
-1872.427 117.0431 281.5461 3.199052 8.664324 164.9277 6.715651 10.25159 1.57421 -0 13.91956 -0 -7.4811 -8.094174 -1.18691 4.57991 -15.88113 -0.8155272 -0 14.67098 -0 5.723526 -3.396809 10.12062 2.981347 -5.454609 9.080361 -0.5208365 20.60606 -7.33328 1.508934 15.08413 -1.055172 -1.895919 -19.92707 2.123052 -1.471997 -36.79848 14.045 90.32372 11.86342 -9.685683 -0 0 35.69679 -27.83879 23.3178 22.82893 -0.1238315 -23.20628 -9.049809 -89.19234 9.623486 39.17515 0 0 -25.32045 1.383868 11.96383 13.41342
-1872.241 117.0158 274.9447 3.260301 8.641614 164.5206 6.715651 10.25159 1.57421 -0 13.91956 -0 -7.4811 -8.094174 -1.18691 4.57991 -15.88113 -0.8155272 -0 14.67098 -0 5.723526 -3.396809 10.12062 2.981347 -5.454609 9.080361 -0.5208365 20.60606 -7.33328 1.508934 15.08413 -1.055172 -1.895919 -19.92707 2.123052 -1.471997 -36.79848 14.045 90.32372 11.86342 -9.685683 -0 0 35.69679 -27.83879 23.3178 22.82893 -0.1238315 -23.20628 -9.049809 -89.19234 9.623486 39.17515 0 0 -25.32045 1.383868 11.96383 13.41342
-1872.008 116.9884 268.3448 3.321381 8.618473 164.1135 6.715651 10.25159 1.57421 -0 13.91956 -0 -7.4811 -8.094174 -1.18691 4.57991 -15.88113 -0.8155272 -0 14.67098 -0 5.723526 -3.396809 10.12062 2.981347 -5.454609 9.080361 -0.5208365 20.60606 -7.33328 1.508934 15.08413 -1.055172 -1.895919 -19.92707 2.123052 -1.471997 -36.79848 14.045 90.32372 11.86342 -9.685683 -0 0 35.69679 -27.83879 23.3178 22.82893 -0.1238315 -23.20628 -9.049809 -89.19234 9.623486 39.17515 0 0 -25.32045 1.383868 11.96383 13.41342
